<svg xmlns="http://www.w3.org/2000/svg" width="25" height="24" fill="none"><rect width="24" height="24" x=".463" fill="url(#a)" rx="8"/><path fill="#CBE4DE" fill-rule="evenodd" d="M5.52 9.141a.54.54 0 0 1-.26 1.012c-.27 0-.599-.027-.856-.182a.819.819 0 0 1-.354-.42.903.903 0 0 1-.019-.532c.115-.466.523-.706.867-.827.365-.128.82-.185 1.308-.191.982-.013 2.225.177 3.448.56 1.221.383 2.463.97 3.42 1.78.96.813 1.67 1.883 1.713 3.21.02.602-.123 1.126-.413 1.56-.288.43-.696.737-1.155.947-.903.414-2.063.485-3.16.363a9.494 9.494 0 0 1-.673-.1l.007.077a.54.54 0 1 1-1.075.093 37.412 37.412 0 0 1-.036-.44 7.552 7.552 0 0 1-1.296-.531c-.424-.226-.806-.496-1.084-.81-.278-.313-.487-.712-.461-1.171.021-.388.296-.634.503-.77a3.01 3.01 0 0 1 .797-.338 8.704 8.704 0 0 1 1.516-.27c.012-.258.027-.525.042-.809l.018-.329a.54.54 0 0 1 1.077.058l-.018.322-.036.697a9.652 9.652 0 0 1 1.667.108c.314.053.616.13.867.24.231.104.522.283.655.602.093.223.132.457.087.688a1.01 1.01 0 0 1-.309.548c-.26.244-.607.335-.825.367a.54.54 0 0 1-.153-1.068.725.725 0 0 0 .157-.04.394.394 0 0 0 .065-.032.237.237 0 0 0-.006-.018.577.577 0 0 0-.11-.06 2.611 2.611 0 0 0-.606-.163 8.696 8.696 0 0 0-1.535-.092c-.02.66-.02 1.292.016 2.027.284.061.575.11.867.142 1.002.111 1.94.028 2.593-.271.32-.147.554-.337.707-.566.15-.226.245-.523.232-.926-.03-.929-.521-1.736-1.331-2.421-.813-.688-1.912-1.22-3.047-1.575-1.133-.355-2.262-.522-3.11-.511a4.101 4.101 0 0 0-.701.062Zm2.693 4.108a25.69 25.69 0 0 0 .004 1.64 5.98 5.98 0 0 1-.724-.321c-.356-.19-.62-.388-.784-.573a.73.73 0 0 1-.184-.317l.008-.005c.095-.062.261-.135.507-.206.323-.094.73-.168 1.173-.218Zm-1.735.467s0-.002.004-.005l-.004.005Zm10.828 1.6c.041-.452.062-.842.06-1.208h-1.32v-1.079h1.236c-.065-.444-.17-.912-.32-1.48l1.043-.275c.176.669.297 1.22.366 1.755H20v1.079h-1.556c.002.398-.02.822-.064 1.307l-1.074-.098Z" clip-rule="evenodd"/><defs><linearGradient id="a" x1=".463" x2="24.463" y1="12" y2="12" gradientUnits="userSpaceOnUse"><stop stop-color="transparent"/><stop offset="1" stop-color="transparent"/></linearGradient></defs></svg>