<svg xmlns="http://www.w3.org/2000/svg" width="25" height="24" fill="none"><rect width="24" height="24" x=".463" fill="url(#a)" rx="8"/><path fill="#CBE4DE" fill-rule="evenodd" d="M6.311 11.689V9.556h.711v2.133h1.422V6H7.022v2.133h-.71V6H4.888v5.689H6.31ZM9.156 6h2.285c.973 0 1.981.685 1.981 1.778 0 .421-.15.782-.39 1.066.24.285.39.646.39 1.067 0 1.093-1.008 1.778-1.98 1.778H9.155V6Zm2.285 2.133a.688.688 0 0 0 .44-.145c.095-.08.119-.157.119-.21 0-.054-.024-.13-.118-.21a.688.688 0 0 0-.44-.146h-.864v.711h.863Zm-.863 1.423h.863c.192 0 .345.065.44.145.095.08.119.156.119.21 0 .054-.024.13-.118.21a.688.688 0 0 1-.44.146h-.864v-.711Zm5.689-2.134a1.422 1.422 0 1 0 0 2.845 1.422 1.422 0 0 0 0-2.845Zm-2.845 1.422a2.844 2.844 0 1 1 5.69 0 2.844 2.844 0 0 1-5.69 0Zm3.257 4.285a.533.533 0 0 0-.825.675l1.323 1.618-1.323 1.618a.533.533 0 0 0 .825.675l1.188-1.45 1.187 1.45a.533.533 0 0 0 .825-.675l-1.323-1.618 1.323-1.618a.533.533 0 1 0-.825-.675l-1.187 1.451-1.188-1.451ZM13.067 14c-.64 0-1.245.588-1.245 1.422 0 .835.604 1.422 1.245 1.422.64 0 1.244-.587 1.244-1.422 0-.834-.604-1.422-1.244-1.422Zm0-1.067c.473 0 .903.15 1.26.4a.534.534 0 0 1 1.05.134v3.911a.533.533 0 0 1-1.05.133c-.357.251-.787.4-1.26.4-1.323 0-2.312-1.163-2.312-2.489 0-1.325.989-2.489 2.312-2.489Zm-2.312 1.956v2.489a.533.533 0 1 1-1.066 0v-2.49a.889.889 0 1 0-1.778 0v2.49a.533.533 0 0 1-1.067 0v-2.49a.889.889 0 1 0-1.777 0v2.49a.533.533 0 0 1-1.067 0v-2.49a1.956 1.956 0 0 1 3.378-1.341 1.956 1.956 0 0 1 3.378 1.342Zm5.512-5.333a.711.711 0 1 0 0-1.423.711.711 0 0 0 0 1.423Z" clip-rule="evenodd"/><defs><linearGradient id="a" x1=".463" x2="24.463" y1="12" y2="12" gradientUnits="userSpaceOnUse"><stop stop-color="transparent"/><stop offset="1" stop-color="transparent"/></linearGradient></defs></svg>