<svg xmlns="http://www.w3.org/2000/svg" width="25" height="24" fill="none"><rect width="24" height="24" x=".463" fill="url(#a)" rx="8"/><path fill="#CBE4DE" fill-rule="evenodd" d="M11.644 4.711a.711.711 0 1 1-1.422 0 .711.711 0 0 1 1.422 0Zm7.683.892c.291.113.673.388.673.886 0 .5-.224.876-.581 1.102-.318.202-.698.257-1.001.267a3.7 3.7 0 0 1-.364-.007c.103.15.229.228.386.24.264.019.428-.044.515-.092a.491.491 0 0 0 .092-.064l.011-.01-.003.003-.004.005-.003.003-.001.002s-.002.002.42.329l.42.327v.002l-.003.002-.003.005-.01.012a1.062 1.062 0 0 1-.108.11 1.559 1.559 0 0 1-.291.207 1.963 1.963 0 0 1-1.112.222c-.559-.042-.963-.357-1.211-.738A2.27 2.27 0 0 1 16.8 7.2c0-.503.195-.91.5-1.199a1.937 1.937 0 0 1 1.012-.483 1.969 1.969 0 0 1 1.015.085ZM18.03 6.779c.115.011.235.017.352.013.23-.008.384-.05.466-.102.03-.019.06-.04.075-.1a.945.945 0 0 0-.435-.02.876.876 0 0 0-.455.207l-.003.002ZM9.511 10.4a.711.711 0 1 1-1.422 0 .711.711 0 0 1 1.422 0Zm1.778 2.311c-.22 0-.533.238-.533.711s.313.711.533.711c.22 0 .533-.238.533-.71 0-.474-.313-.712-.533-.712Zm0-1.067c.191 0 .37.035.533.098V10.4h1.067v4.8h-1.067v-.098a1.473 1.473 0 0 1-.533.098c-.958 0-1.6-.876-1.6-1.778s.642-1.778 1.6-1.778Zm6.578 1.778c0-.473.313-.71.533-.71.22 0 .533.237.533.71s-.313.711-.533.711c-.22 0-.533-.238-.533-.71Zm.533-1.778c-.958 0-1.6.877-1.6 1.778 0 .902.642 1.778 1.6 1.778.958 0 1.6-.876 1.6-1.778s-.642-1.778-1.6-1.778Zm-14.354.395 1.422 3.2h.975l1.422-3.2-.975-.433-.934 2.103-.935-2.103-.975.433Zm4.22 3.161v-3.378h1.067V15.2H8.267Zm8.178-2.555c0-.498-.381-.773-.673-.886a1.97 1.97 0 0 0-1.014-.085 1.936 1.936 0 0 0-1.012.483c-.306.289-.5.695-.5 1.199 0 .4.108.847.349 1.216.247.38.652.696 1.21.738.484.036.854-.08 1.112-.222a1.557 1.557 0 0 0 .373-.288.948.948 0 0 0 .026-.03l.01-.011.004-.005.002-.002v-.002l-.42-.328c-.421-.327-.42-.328-.42-.328l.002-.002.002-.003.004-.005.003-.004-.01.01a.497.497 0 0 1-.092.065c-.088.048-.252.11-.516.091-.163-.012-.292-.095-.397-.256a.9.9 0 0 1-.053-.095c.23-.003.483-.016.716-.053.26-.041.563-.12.814-.293a1.07 1.07 0 0 0 .48-.904Zm-1.46.143c-.114.018-.232.029-.35.035a1.057 1.057 0 0 1 .622-.102 1.426 1.426 0 0 1-.273.067ZM12 18.578c-2.856 0-5.567-1.207-6.924-1.811-.534-.238-.858-.382-.898-.323-.144.21 3.1 3.2 7.822 3.2 3.911 0 6.824-1.71 6.4-2.133-.185-.185-.818-.005-1.738.256-1.19.337-2.858.81-4.662.81Zm7.782-2.222c.521.52-.636 2.889-1.007 2.747-.187-.072-.048-.487.101-.933.153-.455.316-.943.153-1.127-.17-.195-.72-.145-1.209-.1-.428.039-.808.073-.84-.067-.096-.433 2.282-1.04 2.802-.52ZM10.4 5.778v3.2h1.067v-3.2H10.4ZM7.911 6.844V5.6h1.067v.052c.289-.052.6-.052.845-.052h.044v1.067c-.386 0-.643.006-.81.061a.23.23 0 0 0-.069.033.24.24 0 0 0-.01.083v2.134H7.91V6.844Zm1.08-.088-.002.003.001-.003Zm-.004.006h-.001Zm-3.031-.095c-.22 0-.534.238-.534.71 0 .474.313.712.534.712.22 0 .533-.238.533-.711s-.313-.711-.533-.711Zm-.89-.772c.247-.184.548-.295.89-.295.957 0 1.6.876 1.6 1.778s-.643 1.778-1.6 1.778c-.342 0-.643-.112-.89-.296v1.184H4V5.6h1.067v.295Zm6.756-.295v3.378h1.067V6.8l.007-.003a1.32 1.32 0 0 1 .526-.13c.086 0 .143.013.178.026v2.285h1.067V6.8l.007-.003a1.32 1.32 0 0 1 .526-.13c.086 0 .143.013.178.026v2.285h1.066v-2.49a.533.533 0 0 0-.066-.258 1.113 1.113 0 0 0-.268-.328c-.205-.171-.504-.302-.91-.302-.39 0-.735.12-.967.226h-.001a1.432 1.432 0 0 0-.81-.226c-.19 0-.371.029-.533.07V5.6h-1.067Z" clip-rule="evenodd"/><defs><linearGradient id="a" x1=".463" x2="24.463" y1="12" y2="12" gradientUnits="userSpaceOnUse"><stop stop-color="transparent"/><stop offset="1" stop-color="transparent"/></linearGradient></defs></svg>